<svg xmlns="http://www.w3.org/2000/svg" viewBox="0 0 64 64" role="img" aria-label="GB-STAMP">
<defs><mask id="pf"><rect x="4" y="4" width="56" height="56" rx="3" fill="white"/><circle cx="4.0" cy="4.0" r="3.4" fill="black"/><circle cx="4.0" cy="60.0" r="3.4" fill="black"/><circle cx="10.2" cy="4.0" r="3.4" fill="black"/><circle cx="10.2" cy="60.0" r="3.4" fill="black"/><circle cx="16.4" cy="4.0" r="3.4" fill="black"/><circle cx="16.4" cy="60.0" r="3.4" fill="black"/><circle cx="22.7" cy="4.0" r="3.4" fill="black"/><circle cx="22.7" cy="60.0" r="3.4" fill="black"/><circle cx="28.9" cy="4.0" r="3.4" fill="black"/><circle cx="28.9" cy="60.0" r="3.4" fill="black"/><circle cx="35.1" cy="4.0" r="3.4" fill="black"/><circle cx="35.1" cy="60.0" r="3.4" fill="black"/><circle cx="41.3" cy="4.0" r="3.4" fill="black"/><circle cx="41.3" cy="60.0" r="3.4" fill="black"/><circle cx="47.6" cy="4.0" r="3.4" fill="black"/><circle cx="47.6" cy="60.0" r="3.4" fill="black"/><circle cx="53.8" cy="4.0" r="3.4" fill="black"/><circle cx="53.8" cy="60.0" r="3.4" fill="black"/><circle cx="60.0" cy="4.0" r="3.4" fill="black"/><circle cx="60.0" cy="60.0" r="3.4" fill="black"/><circle cx="4.0" cy="10.2" r="3.4" fill="black"/><circle cx="60.0" cy="10.2" r="3.4" fill="black"/><circle cx="4.0" cy="16.4" r="3.4" fill="black"/><circle cx="60.0" cy="16.4" r="3.4" fill="black"/><circle cx="4.0" cy="22.7" r="3.4" fill="black"/><circle cx="60.0" cy="22.7" r="3.4" fill="black"/><circle cx="4.0" cy="28.9" r="3.4" fill="black"/><circle cx="60.0" cy="28.9" r="3.4" fill="black"/><circle cx="4.0" cy="35.1" r="3.4" fill="black"/><circle cx="60.0" cy="35.1" r="3.4" fill="black"/><circle cx="4.0" cy="41.3" r="3.4" fill="black"/><circle cx="60.0" cy="41.3" r="3.4" fill="black"/><circle cx="4.0" cy="47.6" r="3.4" fill="black"/><circle cx="60.0" cy="47.6" r="3.4" fill="black"/><circle cx="4.0" cy="53.8" r="3.4" fill="black"/><circle cx="60.0" cy="53.8" r="3.4" fill="black"/></mask></defs>
<rect x="4" y="4" width="56" height="56" rx="3" fill="#a5322e" mask="url(#pf)"/>
<g mask="url(#pf)">
  <ellipse cx="32" cy="33" rx="20" ry="23" fill="#87231f" stroke="#f4ecdb" stroke-width="1.4"/>
  <path d="M126 90 C150 92 158 118 152 146 C150 166 148 176 146 186 L146 206 L98 206 L98 188 C96 180 92 176 90 170 C88 166 92 160 88 156 C80 154 82 148 90 148 C86 144 92 142 90 138 C78 136 74 132 86 128 C90 124 90 120 94 118 C96 108 100 96 126 90 Z" fill="#f4ecdb" transform="translate(32 33) scale(0.3448275862068966) translate(-113 -148)"/>
</g>
</svg>