<svg xmlns="http://www.w3.org/2000/svg" viewBox="0 0 64 64" role="img" aria-label="GB-STAMP">
<defs><mask id="pf"><rect x="4" y="4" width="56" height="56" rx="3" fill="white"/><circle cx="4.0" cy="4.0" r="3.4" fill="black"/><circle cx="4.0" cy="60.0" r="3.4" fill="black"/><circle cx="10.2" cy="4.0" r="3.4" fill="black"/><circle cx="10.2" cy="60.0" r="3.4" fill="black"/><circle cx="16.4" cy="4.0" r="3.4" fill="black"/><circle cx="16.4" cy="60.0" r="3.4" fill="black"/><circle cx="22.7" cy="4.0" r="3.4" fill="black"/><circle cx="22.7" cy="60.0" r="3.4" fill="black"/><circle cx="28.9" cy="4.0" r="3.4" fill="black"/><circle cx="28.9" cy="60.0" r="3.4" fill="black"/><circle cx="35.1" cy="4.0" r="3.4" fill="black"/><circle cx="35.1" cy="60.0" r="3.4" fill="black"/><circle cx="41.3" cy="4.0" r="3.4" fill="black"/><circle cx="41.3" cy="60.0" r="3.4" fill="black"/><circle cx="47.6" cy="4.0" r="3.4" fill="black"/><circle cx="47.6" cy="60.0" r="3.4" fill="black"/><circle cx="53.8" cy="4.0" r="3.4" fill="black"/><circle cx="53.8" cy="60.0" r="3.4" fill="black"/><circle cx="60.0" cy="4.0" r="3.4" fill="black"/><circle cx="60.0" cy="60.0" r="3.4" fill="black"/><circle cx="4.0" cy="10.2" r="3.4" fill="black"/><circle cx="60.0" cy="10.2" r="3.4" fill="black"/><circle cx="4.0" cy="16.4" r="3.4" fill="black"/><circle cx="60.0" cy="16.4" r="3.4" fill="black"/><circle cx="4.0" cy="22.7" r="3.4" fill="black"/><circle cx="60.0" cy="22.7" r="3.4" fill="black"/><circle cx="4.0" cy="28.9" r="3.4" fill="black"/><circle cx="60.0" cy="28.9" r="3.4" fill="black"/><circle cx="4.0" cy="35.1" r="3.4" fill="black"/><circle cx="60.0" cy="35.1" r="3.4" fill="black"/><circle cx="4.0" cy="41.3" r="3.4" fill="black"/><circle cx="60.0" cy="41.3" r="3.4" fill="black"/><circle cx="4.0" cy="47.6" r="3.4" fill="black"/><circle cx="60.0" cy="47.6" r="3.4" fill="black"/><circle cx="4.0" cy="53.8" r="3.4" fill="black"/><circle cx="60.0" cy="53.8" r="3.4" fill="black"/></mask></defs>
<rect x="4" y="4" width="56" height="56" rx="3" fill="#a5322e" mask="url(#pf)"/>
<path d="M25.1 80.1 L23.0 81.9 L21.4 82.4 L19.3 84.1 L17.5 83.9 L15.2 81.8 L12.9 82.1 L13.9 81.0 L12.6 80.7 L11.9 80.1 L10.4 80.1 L8.4 81.4 L6.8 80.5 L6.5 80.1 L6.3 78.7 L5.9 78.5 L7.1 77.1 L11.9 74.8 L13.5 73.3 L14.6 70.8 L14.2 70.6 L13.9 70.0 L14.2 68.9 L13.7 67.6 L13.8 66.5 L12.1 66.7 L9.8 67.7 L10.1 66.7 L11.7 65.3 L12.7 63.8 L13.7 62.9 L16.1 61.9 L16.9 62.0 L19.1 61.5 L20.6 62.5 L20.1 60.9 L20.8 60.5 L21.8 61.9 L23.0 61.9 L21.9 61.4 L20.8 59.5 L20.9 58.7 L21.8 57.0 L21.1 56.5 L21.0 55.7 L21.1 55.0 L21.9 54.3 L22.3 52.3 L22.2 51.8 L20.1 52.4 L19.1 51.2 L17.4 48.5 L17.2 47.3 L18.1 44.9 L19.4 43.4 L21.0 42.8 L17.5 42.9 L14.8 44.8 L13.6 44.9 L12.8 44.1 L11.0 45.1 L8.9 44.1 L8.4 44.9 L8.3 45.9 L6.8 44.0 L6.5 42.5 L6.9 42.2 L7.3 42.4 L7.9 40.6 L9.9 36.5 L9.6 35.4 L8.4 34.2 L8.6 32.2 L8.9 31.5 L10.5 31.4 L8.7 30.1 L9.0 28.9 L8.2 30.4 L7.1 30.9 L6.2 32.0 L6.0 31.5 L6.2 29.9 L7.7 28.0 L5.1 30.5 L4.8 31.0 L5.2 32.7 L5.1 33.4 L3.9 37.8 L3.3 38.5 L2.5 38.1 L3.1 35.1 L4.3 33.0 L3.5 32.9 L3.6 30.1 L3.9 29.1 L4.1 27.8 L5.0 24.7 L5.5 24.3 L5.6 23.5 L6.4 21.9 L3.3 24.5 L1.8 24.2 L1.3 23.7 L1.1 22.7 L0.0 22.4 L0.7 21.9 L1.7 21.7 L2.7 20.8 L1.8 20.3 L2.7 19.6 L3.7 17.9 L3.9 16.4 L3.2 15.3 L2.3 14.7 L2.2 13.7 L3.7 12.8 L3.1 12.5 L2.6 11.4 L3.6 8.9 L5.3 8.9 L5.7 8.6 L6.6 8.9 L4.9 6.7 L5.3 5.9 L5.4 4.8 L7.6 4.5 L7.1 3.1 L7.2 1.5 L7.6 1.0 L9.0 0.9 L9.6 1.6 L11.1 0.9 L11.5 1.6 L19.5 0.0 L20.9 0.2 L20.5 1.6 L20.5 2.8 L19.8 3.8 L14.5 8.0 L14.2 9.2 L15.4 9.6 L13.9 11.3 L13.6 12.4 L19.3 10.9 L21.0 11.3 L27.6 11.0 L28.3 11.3 L29.0 12.0 L29.5 13.6 L27.9 16.1 L27.4 17.9 L26.3 20.7 L24.7 23.3 L23.4 24.8 L20.9 25.5 L19.2 26.5 L22.0 26.1 L23.6 27.0 L23.5 27.8 L22.8 28.4 L21.4 28.5 L20.1 29.8 L18.8 30.4 L15.9 29.6 L17.1 30.5 L20.9 31.3 L22.4 30.4 L24.0 30.4 L27.1 31.8 L30.4 35.7 L32.0 42.0 L33.3 45.7 L33.8 46.3 L37.1 48.1 L39.1 50.7 L41.1 52.5 L40.2 53.6 L40.5 54.6 L42.4 58.4 L41.1 58.0 L39.8 56.9 L37.2 57.1 L39.6 57.5 L42.5 60.1 L43.5 61.6 L44.1 63.6 L43.7 64.5 L41.9 66.6 L43.5 67.7 L44.2 67.5 L45.4 65.9 L48.8 66.0 L50.3 66.4 L52.9 68.3 L53.5 70.4 L53.5 71.6 L52.4 75.7 L51.2 77.1 L50.6 77.6 L50.0 77.4 L50.3 78.9 L49.1 79.6 L48.1 79.3 L46.7 80.2 L47.7 80.7 L47.9 81.2 L47.7 82.0 L44.5 83.3 L45.2 83.0 L45.7 83.2 L46.3 84.2 L47.7 84.5 L51.2 84.4 L51.1 86.5 L48.7 88.1 L48.2 89.5 L46.9 89.4 L46.3 90.0 L43.0 91.4 L40.3 90.8 L36.3 91.4 L32.0 89.9 L32.6 90.7 L30.8 91.8 L27.8 91.8 L28.3 93.0 L27.8 93.3 L25.7 92.9 L25.1 93.3 L22.8 92.1 L21.3 91.9 L18.5 92.9 L18.0 93.9 L17.3 96.5 L16.7 97.5 L15.9 97.6 L13.2 95.7 L9.5 96.9 L7.6 98.4 L6.9 99.8 L6.2 100.0 L5.5 99.3 L4.7 99.0 L3.5 99.7 L3.2 99.4 L3.2 98.7 L3.8 98.0 L5.4 97.4 L7.7 94.5 L8.4 94.1 L10.5 91.3 L10.9 88.9 L12.5 88.3 L13.2 86.5 L15.5 86.0 L20.3 86.3 L21.0 85.8 L22.1 84.0 L25.1 80.1 Z" fill="#f4ecdb" transform="translate(18.1 7.0) scale(0.520)"/>
</svg>